<svg width="11" height="19" viewBox="0 0 11 19" fill="none" xmlns="http://www.w3.org/2000/svg">
<path fill-rule="evenodd" clip-rule="evenodd" d="M10.2333 1.71738C10.6295 1.33261 10.6388 0.699517 10.254 0.303319C9.86926 -0.0928794 9.23617 -0.102146 8.83997 0.282621L0.317457 8.55924C0.305656 8.57028 0.294059 8.58166 0.28268 8.59337C0.126677 8.75401 0.0354492 8.95359 0.00852141 9.15977C-0.0298091 9.45232 0.0611055 9.75893 0.282621 9.98703C0.294938 9.99971 0.307511 10.012 0.320322 10.0239L8.84003 18.2978C9.23622 18.6825 9.86932 18.6733 10.2541 18.2771C10.6389 17.8809 10.6296 17.2478 10.2334 16.863L2.43556 9.29017L10.2333 1.71738Z" fill="white"/>
</svg>
